<?xml version="1.0" encoding="UTF-8"?>
<svg width="55px" height="53px" viewBox="0 0 55 53" version="1.1" xmlns="http://www.w3.org/2000/svg" xmlns:xlink="http://www.w3.org/1999/xlink">
    <!-- Generator: Sketch 40.3 (33839) - http://www.bohemiancoding.com/sketch -->
    <title>kyivstar-logo-ua</title>
    <desc>Created with Sketch.</desc>
    <defs></defs>
    <g id="Mobile-&lt;-450" stroke="none" stroke-width="1" fill="none" fill-rule="evenodd">
        <g id="kyivstar-logo-ua" transform="translate(-1.000000, 0.000000)" fill="#6A98FC">
            <g id="kyivstar-logo">
                <path d="M28.2,19.83 C26.2670034,19.83 24.7,18.2629966 24.7,16.33 L24.7,3.5 C24.7,1.56700338 26.2670034,0 28.2,0 C30.1329966,0 31.7,1.56700338 31.7,3.5 L31.7,16.37 C31.7,18.3029966 30.1329966,19.87 28.2,19.87" id="Shape"></path>
                <path d="M20.03,25.77 C19.7437383,26.6532914 19.1182231,27.3866355 18.2911328,27.8086203 C17.4640425,28.2306052 16.5031675,28.3066439 15.62,28.02 L3.42,24.02 C2.23030553,23.6341532 1.33682934,22.6429216 1.07613527,21.4196926 C0.815441197,20.1964635 1.22713489,18.9270747 2.1561353,18.0896925 C3.08513571,17.2523103 4.39030557,16.9741531 5.58,17.36 L17.78,21.36 C18.6632914,21.6462617 19.3966355,22.2717769 19.8186203,23.0988672 C20.2406052,23.9259575 20.3166439,24.8868325 20.03,25.77" id="Shape"></path>
                <path d="M36.38,25.77 C36.6662617,26.6532914 37.2917769,27.3866355 38.1188672,27.8086203 C38.9459575,28.2306052 39.9068325,28.3066439 40.79,28.02 L52.99,24.02 C54.7215742,23.3504299 55.6290887,21.4453446 55.0579673,19.6788527 C54.4868458,17.9123608 52.6358173,16.8991352 50.84,17.37 L38.64,21.37 C37.7567086,21.6562617 37.0233645,22.2817769 36.6013797,23.1088672 C36.1793948,23.9359575 36.1033561,24.8968325 36.39,25.78" id="Shape"></path>
                <path d="M11.49,51.44 C10.7377868,50.8952248 10.2329457,50.0738094 10.0866486,49.1566389 C9.94035144,48.2394683 10.1645956,47.3017571 10.71,46.55 L18.25,36.17 C19.4126875,34.6917778 21.5357293,34.3966497 23.057522,35.5016971 C24.5793148,36.6067445 24.9557762,38.7168829 23.91,40.28 L16.37,50.66 C15.8237135,51.4106419 15.0015768,51.9134908 14.0844952,52.0578983 C13.1674137,52.2023058 12.2305304,51.9764396 11.48,51.43" id="Shape"></path>
                <path d="M44.92,51.44 C45.6706419,50.8937135 46.1734908,50.0715768 46.3178983,49.1544952 C46.4623058,48.2374137 46.2364396,47.3005304 45.69,46.55 L38.15,36.17 C36.9873125,34.6917778 34.8642707,34.3966497 33.342478,35.5016971 C31.8206852,36.6067445 31.4442238,38.7168829 32.49,40.28 L40.03,50.66 C40.5762865,51.4106419 41.3984232,51.9134908 42.3155048,52.0578983 C43.2325863,52.2023058 44.1694696,51.9764396 44.92,51.43" id="Shape"></path>
            </g>
        </g>
    </g>
</svg>