<?xml version="1.0" encoding="utf-8"?>
<!-- Generated by IcoMoon.io -->
<!DOCTYPE svg PUBLIC "-//W3C//DTD SVG 1.1//EN" "http://www.w3.org/Graphics/SVG/1.1/DTD/svg11.dtd">
<svg version="1.1" xmlns="http://www.w3.org/2000/svg" xmlns:xlink="http://www.w3.org/1999/xlink" width="1024" height="1024" viewBox="0 0 1024 1024"><g id="icomoon-ignore">
</g>
<path d="M765.691 658.604c-10.577-18.876-31.078-32.024-56.234-36.179-22.502-3.63-46.147 0.040-64.85 10.285l-43.574 23.877c-1.715 0.968-3.104 2.38-4.451 3.751-1.879 0.403-3.757 0.766-5.513 1.734-28.546 15.649-68.608 17.706-107.158 5.324-41.94-13.431-76.448-41.099-97.071-77.802-44.717-79.456-12.17-177.868 45.616-209.57 2.001-1.089 3.553-2.622 4.982-4.235 1.674-0.403 3.471-0.403 4.982-1.25l43.615-23.917c38.347-21.054 64.36-74.777 41.695-115.151l-79.307-141.004c-10.618-18.876-31.118-32.065-56.234-36.219-22.379-3.63-46.106 0.081-64.81 10.285l-43.574 23.917c-1.797 0.968-3.104 2.38-4.451 3.751-1.879 0.403-3.757 0.766-5.513 1.734-68.444 37.55-110.997 121.483-116.714 230.301-5.758 109.222 25.115 229.858 86.862 339.684 101.482 180.45 273.205 299.19 410.869 299.19 34.263 0 66.484-7.341 94.907-22.949 1.96-1.089 3.512-2.622 4.982-4.195 1.674-0.444 3.43-0.444 4.982-1.291l43.533-23.877c21.726-11.939 39.613-34.606 46.759-59.249 5.758-20.005 3.961-39.889-5.023-55.942l-79.307-141.004zM347.226 103.824c10.414-5.727 25.197-7.946 38.265-5.768 12.741 2.097 22.665 7.905 27.198 15.972l79.307 141.044c10.495 18.634-5.676 49.247-25.85 60.298l-25.728 14.117-118.92-211.546 25.728-14.117zM197.923 330.294c4.696-90.144 36.877-159.194 88.251-192.066l118.838 211.345c-70.935 45.375-108.71 162.179-53.906 259.583 25.687 45.697 68.362 79.98 120.186 96.597 21.113 6.776 42.349 10.124 62.809 10.124 24.666 0 47.984-5.163 68.608-14.762l118.92 211.425c-111.651 51.626-316.452-41.059-441.906-264.181-58.112-103.333-87.148-216.265-81.798-318.066zM810.735 844.499c-4.206 14.48-14.865 28.233-27.28 35.009h-0.041l-25.687 14.117-119.001-211.546 25.769-14.117c10.373-5.727 25.115-7.865 38.265-5.768 12.782 2.138 22.706 7.946 27.198 15.972l79.348 141.044c4.778 8.51 3.43 18.472 1.429 25.289v0z"></path>
</svg>
